<?xml version="1.0" encoding="UTF-8"?>
<!-- Generator: Adobe Illustrator 27.7.0, SVG Export Plug-In . SVG Version: 6.00 Build 0)  -->
<svg xmlns="http://www.w3.org/2000/svg" xmlns:xlink="http://www.w3.org/1999/xlink" version="1.1" id="Camada_1" x="0px" y="0px" viewBox="0 0 179.24 62.82" style="enable-background:new 0 0 179.24 62.82;" xml:space="preserve">
<style type="text/css">
	.st0{fill:#FFFFFF;}
</style>
<g>
	<g>
		<g>
			<path class="st0" d="M156.96,40.24c-0.98-0.16-1.76-0.64-2.34-1.44c-0.58-0.8-0.79-1.67-0.63-2.62c0.16-0.97,0.66-1.73,1.47-2.3     c0.81-0.57,1.71-0.77,2.69-0.6c0.99,0.16,1.78,0.65,2.36,1.44c0.58,0.8,0.79,1.68,0.63,2.65c-0.16,0.95-0.65,1.71-1.47,2.27     C158.86,40.2,157.95,40.4,156.96,40.24z"></path>
		</g>
		<g>
			
				<rect x="148.44" y="17.61" transform="matrix(0.0808 -0.9967 0.9967 0.0808 125.4102 177.3728)" class="st0" width="20.87" height="6.15"></rect>
		</g>
	</g>
	<g>
		<path class="st0" d="M33.46,47.54c0.38,0.38,0.57,0.92,0.57,1.61c0,0.73-0.19,1.29-0.58,1.7c-0.38,0.4-0.93,0.6-1.62,0.6h-1.09    v1.79h-1.24v-6.27h2.33C32.54,46.97,33.08,47.16,33.46,47.54z M32.58,49.99c0.19-0.18,0.28-0.45,0.28-0.8    c0-0.35-0.09-0.61-0.28-0.78s-0.45-0.26-0.8-0.26h-1.03v2.12h1.03C32.13,50.26,32.39,50.17,32.58,49.99z"></path>
		<path class="st0" d="M39.5,53.24l-0.87-1.79h-0.12h-1.15v1.79h-1.24v-6.27h2.39c0.72,0,1.27,0.19,1.67,0.57    c0.39,0.38,0.59,0.92,0.59,1.61c0,0.48-0.09,0.9-0.26,1.24c-0.17,0.34-0.43,0.6-0.77,0.78l1.17,2.07H39.5z M37.37,50.26h1.15    c0.35,0,0.61-0.09,0.8-0.27s0.28-0.45,0.28-0.8c0-0.35-0.09-0.61-0.28-0.78s-0.45-0.26-0.8-0.26h-1.15V50.26z"></path>
		<path class="st0" d="M47.17,47.29c0.45,0.28,0.8,0.67,1.06,1.16c0.26,0.49,0.39,1.04,0.39,1.64s-0.13,1.15-0.39,1.65    c-0.26,0.5-0.61,0.89-1.06,1.17c-0.45,0.28-0.95,0.43-1.5,0.43s-1.05-0.14-1.5-0.43c-0.45-0.28-0.8-0.67-1.06-1.16    c-0.26-0.49-0.39-1.04-0.39-1.65c0-0.6,0.13-1.15,0.39-1.64c0.26-0.49,0.61-0.88,1.06-1.16c0.45-0.28,0.95-0.42,1.5-0.42    C46.22,46.87,46.72,47.01,47.17,47.29z M44.83,48.37c-0.26,0.18-0.47,0.42-0.62,0.72c-0.15,0.3-0.23,0.64-0.23,1    c0,0.37,0.08,0.71,0.23,1.01c0.15,0.3,0.36,0.55,0.62,0.73s0.54,0.27,0.84,0.27s0.58-0.09,0.84-0.26s0.46-0.42,0.6-0.73    c0.15-0.31,0.22-0.65,0.22-1.02c0-0.36-0.07-0.7-0.22-1c-0.15-0.3-0.35-0.54-0.6-0.72c-0.25-0.18-0.53-0.26-0.84-0.26    S45.1,48.19,44.83,48.37z"></path>
		<path class="st0" d="M50.73,46.97h3.95l-0.01,1.17h-2.7v1.54h2.48v1.18h-2.48v2.37h-1.24V46.97z"></path>
		<path class="st0" d="M56.7,46.97h1.24v6.27H56.7V46.97z"></path>
		<path class="st0" d="M63.17,48.24c-0.32-0.12-0.59-0.17-0.81-0.17c-0.21,0-0.38,0.04-0.51,0.13c-0.13,0.09-0.19,0.22-0.19,0.39    c0,0.22,0.09,0.39,0.27,0.51c0.18,0.12,0.46,0.24,0.84,0.36c0.38,0.13,0.69,0.25,0.93,0.38c0.24,0.13,0.45,0.31,0.63,0.56    c0.17,0.25,0.26,0.58,0.26,0.99c0,0.4-0.09,0.75-0.28,1.03c-0.19,0.29-0.44,0.51-0.77,0.66c-0.33,0.15-0.69,0.22-1.11,0.22    c-0.45,0-0.88-0.09-1.31-0.27c-0.43-0.18-0.8-0.42-1.12-0.73l0.5-1.16c0.28,0.29,0.6,0.52,0.96,0.69    c0.36,0.17,0.69,0.26,0.99,0.26c0.26,0,0.46-0.05,0.6-0.16c0.14-0.11,0.22-0.26,0.22-0.47c0-0.16-0.05-0.29-0.15-0.4    c-0.1-0.1-0.22-0.19-0.37-0.25c-0.15-0.07-0.35-0.14-0.62-0.22c-0.38-0.12-0.68-0.24-0.92-0.36c-0.24-0.12-0.44-0.3-0.62-0.55    s-0.26-0.57-0.26-0.98c0-0.38,0.09-0.71,0.27-0.99c0.18-0.28,0.43-0.5,0.75-0.65c0.32-0.15,0.69-0.23,1.12-0.23    c0.38,0,0.75,0.06,1.12,0.19c0.37,0.13,0.69,0.29,0.97,0.5l-0.48,1.17C63.79,48.52,63.49,48.36,63.17,48.24z"></path>
		<path class="st0" d="M69.47,48.24c-0.32-0.12-0.59-0.17-0.81-0.17c-0.21,0-0.38,0.04-0.51,0.13c-0.13,0.09-0.19,0.22-0.19,0.39    c0,0.22,0.09,0.39,0.27,0.51c0.18,0.12,0.46,0.24,0.84,0.36c0.38,0.13,0.69,0.25,0.93,0.38c0.24,0.13,0.45,0.31,0.62,0.56    c0.17,0.25,0.26,0.58,0.26,0.99c0,0.4-0.09,0.75-0.28,1.03c-0.19,0.29-0.44,0.51-0.77,0.66c-0.33,0.15-0.69,0.22-1.11,0.22    c-0.45,0-0.88-0.09-1.31-0.27c-0.43-0.18-0.8-0.42-1.12-0.73l0.5-1.16c0.28,0.29,0.6,0.52,0.96,0.69    c0.36,0.17,0.69,0.26,0.99,0.26c0.26,0,0.46-0.05,0.6-0.16c0.14-0.11,0.22-0.26,0.22-0.47c0-0.16-0.05-0.29-0.15-0.4    c-0.1-0.1-0.22-0.19-0.37-0.25c-0.15-0.07-0.35-0.14-0.62-0.22c-0.38-0.12-0.68-0.24-0.92-0.36c-0.24-0.12-0.44-0.3-0.62-0.55    s-0.26-0.57-0.26-0.98c0-0.38,0.09-0.71,0.27-0.99c0.18-0.28,0.43-0.5,0.75-0.65c0.32-0.15,0.69-0.23,1.12-0.23    c0.38,0,0.75,0.06,1.12,0.19c0.37,0.13,0.69,0.29,0.97,0.5l-0.48,1.17C70.09,48.52,69.79,48.36,69.47,48.24z"></path>
		<path class="st0" d="M77.11,47.29c0.45,0.28,0.8,0.67,1.06,1.16c0.26,0.49,0.39,1.04,0.39,1.64s-0.13,1.15-0.39,1.65    c-0.26,0.5-0.61,0.89-1.06,1.17c-0.45,0.28-0.95,0.43-1.5,0.43s-1.05-0.14-1.5-0.43c-0.45-0.28-0.8-0.67-1.06-1.16    c-0.26-0.49-0.39-1.04-0.39-1.65c0-0.6,0.13-1.15,0.39-1.64c0.26-0.49,0.61-0.88,1.06-1.16c0.45-0.28,0.95-0.42,1.5-0.42    C76.16,46.87,76.66,47.01,77.11,47.29z M74.77,48.37c-0.26,0.18-0.47,0.42-0.62,0.72c-0.15,0.3-0.23,0.64-0.23,1    c0,0.37,0.08,0.71,0.23,1.01c0.15,0.3,0.36,0.55,0.62,0.73s0.54,0.27,0.84,0.27s0.58-0.09,0.84-0.26s0.46-0.42,0.6-0.73    c0.15-0.31,0.22-0.65,0.22-1.02c0-0.36-0.07-0.7-0.22-1c-0.15-0.3-0.35-0.54-0.6-0.72c-0.25-0.18-0.53-0.26-0.84-0.26    S75.04,48.19,74.77,48.37z M76.81,46.13c-0.11,0.23-0.3,0.35-0.55,0.35c-0.12,0-0.23-0.02-0.33-0.07    c-0.1-0.04-0.23-0.11-0.37-0.19c-0.06-0.04-0.13-0.08-0.19-0.11s-0.12-0.04-0.16-0.04c-0.08,0-0.13,0.03-0.17,0.09    c-0.03,0.06-0.05,0.16-0.05,0.29h-0.71c0-0.43,0.06-0.76,0.17-0.99s0.3-0.35,0.55-0.35c0.12,0,0.23,0.02,0.33,0.07    c0.1,0.04,0.23,0.11,0.37,0.19c0.16,0.11,0.28,0.16,0.35,0.16c0.08,0,0.13-0.03,0.16-0.1c0.03-0.07,0.05-0.16,0.06-0.29h0.71    C76.98,45.57,76.93,45.89,76.81,46.13z"></path>
		<path class="st0" d="M80.67,46.97h4.19v1.17h-2.94v1.36h2.65v1.17h-2.65v1.39h3.03v1.17h-4.27V46.97z"></path>
		<path class="st0" d="M89.93,48.24c-0.32-0.12-0.59-0.17-0.81-0.17c-0.21,0-0.38,0.04-0.51,0.13c-0.12,0.09-0.19,0.22-0.19,0.39    c0,0.22,0.09,0.39,0.27,0.51c0.18,0.12,0.46,0.24,0.84,0.36s0.69,0.25,0.93,0.38c0.24,0.13,0.45,0.31,0.62,0.56    c0.17,0.25,0.26,0.58,0.26,0.99c0,0.4-0.09,0.75-0.28,1.03c-0.19,0.29-0.44,0.51-0.77,0.66c-0.32,0.15-0.69,0.22-1.11,0.22    c-0.45,0-0.88-0.09-1.31-0.27c-0.43-0.18-0.8-0.42-1.12-0.73l0.49-1.16c0.28,0.29,0.6,0.52,0.96,0.69    c0.36,0.17,0.69,0.26,0.99,0.26c0.26,0,0.46-0.05,0.6-0.16c0.14-0.11,0.22-0.26,0.22-0.47c0-0.16-0.05-0.29-0.15-0.4    c-0.1-0.1-0.22-0.19-0.37-0.25c-0.15-0.07-0.35-0.14-0.62-0.22c-0.38-0.12-0.68-0.24-0.92-0.36c-0.24-0.12-0.44-0.3-0.62-0.55    s-0.26-0.57-0.26-0.98c0-0.38,0.09-0.71,0.27-0.99c0.18-0.28,0.43-0.5,0.75-0.65c0.32-0.15,0.69-0.23,1.12-0.23    c0.38,0,0.75,0.06,1.11,0.19c0.37,0.13,0.69,0.29,0.97,0.5l-0.48,1.17C90.55,48.52,90.25,48.36,89.93,48.24z"></path>
		<path class="st0" d="M96.64,46.97h4.19v1.17h-2.94v1.36h2.65v1.17h-2.65v1.39h3.03v1.17h-4.27V46.97z"></path>
		<path class="st0" d="M106.32,46.97h1.24v6.27h-1.24V46.97z"></path>
		<path class="st0" d="M113.9,47.37c0.44,0.27,0.78,0.64,1.03,1.11c0.24,0.47,0.36,1.02,0.36,1.62s-0.12,1.15-0.37,1.63    c-0.25,0.47-0.6,0.84-1.04,1.11s-0.95,0.4-1.52,0.4h-2.29v-6.27h2.33C112.96,46.97,113.46,47.1,113.9,47.37z M113.26,51.8    c0.24-0.16,0.43-0.39,0.57-0.69c0.14-0.29,0.2-0.63,0.2-1c0-0.38-0.07-0.71-0.22-1.01c-0.14-0.3-0.34-0.53-0.59-0.69    c-0.25-0.16-0.53-0.25-0.84-0.25h-1.07v3.89h1.12C112.74,52.05,113.01,51.96,113.26,51.8z"></path>
		<path class="st0" d="M117.41,46.97h1.24v6.27h-1.24V46.97z"></path>
		<path class="st0" d="M125.22,47.29c0.45,0.28,0.81,0.67,1.06,1.16c0.26,0.49,0.39,1.04,0.39,1.64s-0.13,1.15-0.39,1.65    c-0.26,0.5-0.61,0.89-1.06,1.17c-0.45,0.28-0.95,0.43-1.5,0.43c-0.55,0-1.05-0.14-1.5-0.43c-0.45-0.28-0.81-0.67-1.06-1.16    c-0.26-0.49-0.39-1.04-0.39-1.65c0-0.6,0.13-1.15,0.39-1.64c0.26-0.49,0.61-0.88,1.06-1.16c0.45-0.28,0.95-0.42,1.5-0.42    C124.27,46.87,124.77,47.01,125.22,47.29z M122.89,48.37c-0.26,0.18-0.47,0.42-0.62,0.72c-0.15,0.3-0.23,0.64-0.23,1    c0,0.37,0.08,0.71,0.23,1.01c0.15,0.3,0.36,0.55,0.62,0.73c0.26,0.18,0.54,0.27,0.84,0.27c0.3,0,0.58-0.09,0.84-0.26    s0.46-0.42,0.6-0.73c0.15-0.31,0.22-0.65,0.22-1.02c0-0.36-0.07-0.7-0.22-1c-0.15-0.3-0.35-0.54-0.6-0.72    c-0.25-0.18-0.53-0.26-0.84-0.26C123.43,48.11,123.15,48.19,122.89,48.37z"></path>
		<path class="st0" d="M128.78,46.97h1.38l1.71,3.85l1.7-3.85h1.37v6.27h-1.11V49l-1.56,3.6h-0.8L129.9,49v4.24h-1.12V46.97z"></path>
		<path class="st0" d="M141.52,53.24l-0.43-1.22h-2.54l-0.43,1.22h-1.28l2.39-6.27h1.28l2.35,6.27H141.52z M138.95,50.88h1.74    l-0.86-2.44L138.95,50.88z"></path>
		<path class="st0" d="M147.41,48.24c-0.32-0.12-0.59-0.17-0.81-0.17c-0.21,0-0.38,0.04-0.51,0.13c-0.12,0.09-0.19,0.22-0.19,0.39    c0,0.22,0.09,0.39,0.27,0.51c0.18,0.12,0.46,0.24,0.84,0.36s0.69,0.25,0.93,0.38c0.24,0.13,0.45,0.31,0.62,0.56    c0.17,0.25,0.26,0.58,0.26,0.99c0,0.4-0.09,0.75-0.28,1.03c-0.19,0.29-0.44,0.51-0.77,0.66c-0.32,0.15-0.69,0.22-1.11,0.22    c-0.45,0-0.88-0.09-1.31-0.27c-0.43-0.18-0.8-0.42-1.12-0.73l0.49-1.16c0.28,0.29,0.6,0.52,0.96,0.69    c0.36,0.17,0.69,0.26,0.99,0.26c0.26,0,0.46-0.05,0.6-0.16c0.14-0.11,0.22-0.26,0.22-0.47c0-0.16-0.05-0.29-0.15-0.4    c-0.1-0.1-0.22-0.19-0.37-0.25c-0.15-0.07-0.35-0.14-0.62-0.22c-0.38-0.12-0.68-0.24-0.92-0.36c-0.24-0.12-0.44-0.3-0.62-0.55    s-0.26-0.57-0.26-0.98c0-0.38,0.09-0.71,0.27-0.99c0.18-0.28,0.43-0.5,0.75-0.65c0.32-0.15,0.69-0.23,1.12-0.23    c0.38,0,0.75,0.06,1.11,0.19c0.37,0.13,0.69,0.29,0.97,0.5l-0.48,1.17C148.02,48.52,147.72,48.36,147.41,48.24z"></path>
	</g>
	<g>
		<path class="st0" d="M35.73,29.83c0,7.24-3.32,10.69-9.83,10.69c-6.49,0-9.81-3.45-9.81-10.69v-2.31h6.14v2.31    c0,3.45,1.43,4.44,3.67,4.44s3.69-0.99,3.69-4.44V9.95h6.14V29.83z"></path>
		<path class="st0" d="M57.82,30c0,7.24-3.32,10.52-9.81,10.52S38.2,37.24,38.2,30V9.95h6.14v19.88c0,3.45,1.43,4.44,3.67,4.44    s3.67-0.99,3.67-4.44V9.95h6.14V30z"></path>
		<path class="st0" d="M86.71,40.13h-6.14V24.24l-4.59,11.58h-4.93l-4.59-11.58v15.89h-6.14V9.95h6.81l6.38,17.81l6.38-17.81h6.83    V40.13z"></path>
		<path class="st0" d="M108.81,20.12c0,6.73-3.38,10.16-9.81,10.16h-3.67v9.85h-6.14V9.95H99C105.43,9.95,108.81,13.38,108.81,20.12    z M99,16.2h-3.67v7.83H99c2.19,0,3.67-0.95,3.67-3.9C102.67,17.15,101.18,16.2,99,16.2z"></path>
		<path class="st0" d="M117.23,16.57v5.35h9.81v6.25h-9.81v5.35h11.62v6.62h-17.76V9.95h17.76v6.62H117.23z"></path>
		<path class="st0" d="M148.34,27.84c1.79,2.74,2.55,6.88,2.53,12.29h-6.14c0-6.19-0.96-9.85-4.26-9.85h-2.98v9.85h-6.14V9.95h9.81    c6.43,0,9.81,3.43,9.81,10.18C150.96,23.57,150.07,26.16,148.34,27.84z M141.15,24.03c2.19,0,3.67-0.95,3.67-3.9    c0-2.98-1.48-3.92-3.67-3.92h-3.67v7.83H141.15z"></path>
	</g>
</g>
</svg>
