<?xml version="1.0" encoding="UTF-8"?>
<!-- Generator: Adobe Illustrator 27.8.1, SVG Export Plug-In . SVG Version: 6.00 Build 0)  -->
<svg xmlns="http://www.w3.org/2000/svg" xmlns:xlink="http://www.w3.org/1999/xlink" version="1.1" id="Camada_1" x="0px" y="0px" viewBox="0 0 115.2 116" style="enable-background:new 0 0 115.2 116;" xml:space="preserve">
<style type="text/css">
	.st0{fill:#FFFFFF;stroke:#FFFFFF;stroke-miterlimit:10;}
	.st1{fill:#BED630;stroke:#BED630;stroke-miterlimit:10;}
	.st2{fill:#373E46;}
	.st3{fill:#FFFFFF;}
	.st4{fill:#3B4047;}
</style>
<path class="st0" d="M69.2,18.4v46.5L69.1,69l-0.4,8.5c-0.3,1.7-0.6,3.3-1.1,4.8c0,0,0,0,0,0c-3.2,10.3-11.2,15.3-23.8,15.3  c-16.8,0-25.4-8.9-25.4-27.7v-6h15.9v6c0,9,3.7,11.5,9.5,11.5c5.8,0,9.5-2.6,9.5-11.5V18.4H69.2z"></path>
<path class="st1" d="M92.4,89.8c-0.4,2.5-1.7,4.4-3.8,5.9c-2.1,1.5-4.4,2-7,1.6c-2.5-0.4-4.5-1.7-6-3.7c-1.5-2.1-2.1-4.3-1.6-6.8  c0.4-2.5,1.7-4.5,3.8-6c2.1-1.5,4.4-2,7-1.6c2.6,0.4,4.6,1.7,6.1,3.7C92.3,85,92.9,87.3,92.4,89.8z"></path>
<polygon class="st1" points="96.3,19.8 92,72.2 75.9,70.9 76.6,65.1 80.4,18.5 "></polygon>
<path class="st2" d="M98.7,79.9l5.6-66.7L76.6,11H45.9v58.9c0,2.2-0.3,3.3-0.4,3.7c-0.2,0.8-0.9,1.4-1.7,1.4c-0.7,0-1.3-0.4-1.6-1h0  c-0.1-0.2-0.6-1.3-0.6-4.1V56.6H10.9v13.3c0,22.6,11.6,35.1,32.8,35.1c10.7,0,19-3.2,24.5-9.3c0.4,0.7,0.8,1.5,1.3,2.2  c2.7,3.6,6.4,5.9,10.8,6.7c1,0.2,1.9,0.2,2.9,0.2c3.4,0,6.6-1,9.5-3c3.7-2.6,6.1-6.3,6.9-10.7c0.7-4-0.1-7.8-2.1-11.2L98.7,79.9z   M69.2,64.8L69.1,69l-0.4,8.5c-0.3,1.7-0.6,3.3-1.1,4.8c0,0,0,0,0,0c-3.2,10.3-11.2,15.3-23.8,15.3c-16.8,0-25.4-8.9-25.4-27.7v-6  h15.9v6c0,9,3.7,11.5,9.5,11.5c5.8,0,9.5-2.6,9.5-11.5V18.4h15.9V64.8z M92.4,89.8c-0.4,2.5-1.7,4.4-3.8,5.9c-2.1,1.5-4.4,2-7,1.6  c-2.5-0.4-4.5-1.7-6-3.7c-1.5-2.1-2.1-4.3-1.6-6.8c0.4-2.5,1.7-4.5,3.8-6c2.1-1.5,4.4-2,7-1.6c2.6,0.4,4.6,1.7,6.1,3.7  C92.3,85,92.9,87.3,92.4,89.8z M92,72.2l-16.1-1.3l0.6-5.8l3.9-46.6l15.9,1.3L92,72.2z"></path>
<g>
	<path class="st3" d="M43.7,98.6c-17.5,0-26.4-9.7-26.4-28.7v-7h17.9v7c0,9.3,4.1,10.5,8.5,10.5c4.4,0,8.5-1.3,8.5-10.5V17.4h17.9   v47.5L70.1,69l-0.4,8.6l0,0.1c-0.3,1.8-0.6,3.3-1.1,4.7v0.8l-0.3,0C64.8,93.5,56.5,98.6,43.7,98.6z"></path>
	<path class="st4" d="M69.2,18.4v46.5L69.1,69l-0.4,8.5c-0.3,1.7-0.6,3.3-1.1,4.8c0,0,0,0,0,0c-3.2,10.3-11.2,15.3-23.8,15.3   c-16.8,0-25.4-8.9-25.4-27.7v-6h15.9v6c0,9,3.7,11.5,9.5,11.5c5.8,0,9.5-2.6,9.5-11.5V18.4H69.2 M71.2,16.4h-2H53.3h-2v2v51.5   c0,7.9-2.9,9.5-7.5,9.5c-4.6,0-7.5-1.6-7.5-9.5v-6v-2h-2H18.3h-2v2v6c0,19.7,9.2,29.7,27.4,29.7c13,0,21.5-5.1,25.2-15.3h0.6l0-1.7   c0.4-1.4,0.8-3,1-4.7l0-0.1l0-0.1l0.4-8.5l0.2-4.2l0,0v0V18.4V16.4L71.2,16.4z"></path>
</g>
</svg>
